<?xml version="1.0" encoding="utf-8"?>
<!-- Generator: Adobe Illustrator 22.1.0, SVG Export Plug-In . SVG Version: 6.00 Build 0)  -->
<svg version="1.1" id="Layer_1" xmlns="http://www.w3.org/2000/svg" xmlns:xlink="http://www.w3.org/1999/xlink" x="0px" y="0px"
	 viewBox="0 0 841.9 595.3" style="enable-background:new 0 0 841.9 595.3;" xml:space="preserve">
<style type="text/css">
	.st0{fill:#FFFFFF;}
	.st1{font-family:'Rubik';}
	.st2{font-size:38.3034px;}
</style>
<text transform="matrix(0.9748 0 0 1 400.1534 259.246)" class="st0 st1 st2">RUBY STORE</text>
<g>
	<g>
		<g>
			<path class="st0" d="M277.4,212.1V280h115.1v-67.8H277.4z M387.2,274.7H282.8v-57.3h104.3V274.7z"/>
			<polygon class="st0" points="348.3,280 348.3,289.8 320.8,289.8 320.8,282.8 337.8,280 			"/>
			<path class="st0" d="M357.4,287.5h-45.6c-2.5,0-4.5,2-4.5,4.5l0,0h54.7l0,0C361.9,289.5,359.9,287.5,357.4,287.5z"/>
		</g>
	</g>
<g>
		
			<rect x="329.3" y="229.5" transform="matrix(0.7071 0.7071 -0.7071 0.7071 264.4081 -167.9472)" class="st0" width="11.3" height="11.3"/>
		
			<rect x="340.2" y="240.4" transform="matrix(0.7071 0.7071 -0.7071 0.7071 275.3137 -172.4645)" class="st0" width="11.3" height="11.3"/>
		
			<rect x="318.5" y="240.3" transform="matrix(0.7071 0.7071 -0.7071 0.7071 268.88 -157.151)" class="st0" width="11.3" height="11.3"/>
		<path class="st0" d="M343.1,256.9L343.1,256.9c-4.4-4.4-11.6-4.4-16,0v0l8,8L343.1,256.9z"/>
	</g>
</g>
</svg>
