<svg id="Layer_1" data-name="Layer 1"
    xmlns="http://www.w3.org/2000/svg" viewBox="0 0 282.12 202.84">
    <defs>
        <style>.cls-1{font-size:38.3px;font-family:Rubik-Bold, Rubik;font-weight:700;}</style>
    </defs>
    <title>RUBY STORE</title>
    <text class="cls-1" transform="translate(12.21 193.27) scale(0.97 1)">RUBY STORE</text>
    <path d="M504.22,167.06V320.79h61.93V167.06ZM556,312H514.4V299.43H556Zm-8.54-76.64a4,4,0,1,1-4,4A4,4,0,0,1,547.43,235.37Zm-4-12a4,4,0,1,1,4,4A4,4,0,0,1,543.41,223.33Zm4,28.09a4,4,0,1,1-4,4A4,4,0,0,1,547.43,251.42ZM556,207.26H514.4V176.11H556Z" transform="translate(-284.02 -167.06)"/>
    <path d="M545.92,181.63H524.45a1.52,1.52,0,0,0-1.51,1.51h0a1.52,1.52,0,0,0,1.51,1.51h21.47a1.52,1.52,0,0,0,1.51-1.51h0A1.52,1.52,0,0,0,545.92,181.63Z" transform="translate(-284.02 -167.06)"/>
    <path d="M545.92,190.17H524.45a1.52,1.52,0,0,0-1.51,1.51h0a1.52,1.52,0,0,0,1.51,1.51h21.47a1.52,1.52,0,0,0,1.51-1.51h0A1.52,1.52,0,0,0,545.92,190.17Z" transform="translate(-284.02 -167.06)"/>
    <path d="M545.92,198.71H524.45a1.52,1.52,0,0,0-1.51,1.51h0a1.52,1.52,0,0,0,1.51,1.51h21.47a1.52,1.52,0,0,0,1.51-1.51h0A1.52,1.52,0,0,0,545.92,198.71Z" transform="translate(-284.02 -167.06)"/>
    <path d="M284,179.33v120.1H487.87V179.33ZM478.3,290.1H293.59V188.66H478.3Z" transform="translate(-284.02 -167.06)"/>
    <polygon points="125.45 132.37 125.45 149.71 76.81 149.71 76.81 137.31 106.85 132.37 125.45 132.37"/>
    <path d="M425.55,312.76H344.76a8,8,0,0,0-8,8h96.85A8,8,0,0,0,425.55,312.76Z" transform="translate(-284.02 -167.06)"/>
    <rect x="375.81" y="210.13" width="20.08" height="20.08" transform="translate(-15.32 -375.41) rotate(45)"/>
    <rect x="395.11" y="229.44" width="20.08" height="20.08" transform="translate(3.98 -383.41) rotate(45)"/>
    <rect x="356.7" y="229.25" width="20.08" height="20.08" transform="translate(-7.41 -356.3) rotate(45)"/>
    <path d="M400.24,258.59h0a20.09,20.09,0,0,0-28.4,0h0l14.2,14.2Z" transform="translate(-284.02 -167.06)"/>
</svg>